<svg width="136" height="136" viewBox="0 0 136 136" fill="none" xmlns="http://www.w3.org/2000/svg">
<path fill-rule="evenodd" clip-rule="evenodd" d="M59.1358 14.584C61.2715 15.4523 62.6682 17.5279 62.6682 19.8334V43.2153C79.7628 44.5684 94.5884 51.5329 106.91 64.0198C120.478 77.7686 128.253 94.9004 130.304 115.131C130.557 117.618 129.149 119.976 126.84 120.935C124.532 121.894 121.867 121.227 120.283 119.293C106.553 102.534 95.3004 94.2918 86.5563 92.4365C78.1806 90.6594 70.2267 90.1451 62.6682 90.8438V116.167C62.6682 118.5 61.2383 120.594 59.0655 121.444C56.8927 122.294 54.4212 121.725 52.8384 120.011L7.17014 70.5561C5.12589 68.3423 5.17165 64.9159 7.27431 62.7575L52.9425 15.8791C54.5513 14.2278 57.0001 13.7157 59.1358 14.584ZM19.1428 66.816L51.3349 101.677V85.8585C51.3349 83.0823 53.3462 80.7149 56.0859 80.2663C66.5841 78.5473 77.5407 78.938 88.9086 81.35C97.1935 83.1079 105.729 88.3378 114.524 96.4583C111.073 87.2106 105.842 79.072 98.8434 71.9803L98.8434 71.9802C87.3048 60.2872 73.449 54.4368 56.9567 54.3063C53.8447 54.2817 51.3349 51.752 51.3349 48.6399V33.7709L19.1428 66.816Z" fill="black" fill-opacity="0.65"/>
</svg>
